<svg xmlns="http://www.w3.org/2000/svg" width="32" height="32" viewBox="0 0 32 32" shape-rendering="crispEdges">
  <!-- Rays -->
  <rect x="15" y="1" width="2" height="4" fill="#f1c40f"/>
  <rect x="15" y="27" width="2" height="4" fill="#f1c40f"/>
  <rect x="1" y="15" width="4" height="2" fill="#f1c40f"/>
  <rect x="27" y="15" width="4" height="2" fill="#f1c40f"/>
  <rect x="5" y="5" width="2" height="2" fill="#f1c40f"/>
  <rect x="7" y="7" width="2" height="2" fill="#f1c40f"/>
  <rect x="25" y="5" width="2" height="2" fill="#f1c40f"/>
  <rect x="23" y="7" width="2" height="2" fill="#f1c40f"/>
  <rect x="5" y="25" width="2" height="2" fill="#f1c40f"/>
  <rect x="7" y="23" width="2" height="2" fill="#f1c40f"/>
  <rect x="25" y="25" width="2" height="2" fill="#f1c40f"/>
  <rect x="23" y="23" width="2" height="2" fill="#f1c40f"/>
  <!-- Sun body -->
  <rect x="13" y="9" width="6" height="2" fill="#f39c12"/>
  <rect x="11" y="11" width="10" height="2" fill="#f1c40f"/>
  <rect x="9" y="13" width="14" height="6" fill="#f1c40f"/>
  <rect x="11" y="19" width="10" height="2" fill="#f1c40f"/>
  <rect x="13" y="21" width="6" height="2" fill="#f39c12"/>
  <!-- Highlight -->
  <rect x="13" y="13" width="2" height="2" fill="#ffeaa7"/>
  <rect x="15" y="11" width="2" height="2" fill="#ffeaa7"/>
</svg>
